# xmcd CD database file
#
# Track frame offsets:
#	150
#	10565
#	21595
#	37900
#	49875
#	68057
#	88992
#	103265
#	116250
#	123590
#
# Disc length: 1896 seconds
#
# Revision: 3
# Processed by: cddbd v1.4PL0 Copyright (c) Steve Scherf et al.
# Submitted via: CDex 1.51
#
DISCID=8107660a
DTITLE=Various Artist - Christmas - Wrangler Cowboy Christmas, volume 6
DYEAR=1998
DGENRE=Christmas
TTITLE0=(George Strait) Frosty The Snowman
TTITLE1=(Reba McEntire) Away In A Manger
TTITLE2=(Vince Gill) One Bright Star
TTITLE3=(Trisha Yearwood) Reindeer Boogie
TTITLE4=(Toby Keith) What Made The Baby Cry
TTITLE5=(Gary Allan) It Must Have Been Ol' Santa Claus
TTITLE6=(Rhett Atkins) No Room
TTITLE7=(Bryan White) I'll Be Home For Christmas
TTITLE8=(Amy Grant) Santa's Reindeer Ride
TTITLE9=(Alabama) Santa Claus (I Still Believe in You)
EXTD=YEAR: 1998
EXTT0=
EXTT1=
EXTT2=
EXTT3=
EXTT4=
EXTT5=
EXTT6=
EXTT7=
EXTT8=
EXTT9=
PLAYORDER=
